<svg xmlns="http://www.w3.org/2000/svg" width="922" height="155" fill="none">
  <path fill="#12262B" d="M214.25 29.27v102.86h70.93v-20.51h-46.95V29.27h-23.98ZM299.46 44.44c2.32 2.3 5.5 3.46 9.25 3.46 3.76 0 6.8-1.15 9.25-3.46a12.4 12.4 0 0 0 3.6-9.1c0-3.62-1.3-6.65-3.6-8.96a12.99 12.99 0 0 0-9.25-3.61c-3.76 0-6.93 1.3-9.25 3.6-2.45 2.32-3.6 5.35-3.6 8.96 0 3.76 1.15 6.8 3.6 9.1Zm-1.44 13.72v73.97h21.38V58.16h-21.38ZM329.15 58.16l25.72 73.97h30.92l25.71-73.97h-22.39l-18.06 56.5h-1.44l-17.92-56.5h-22.54ZM434.4 129.53c6.21 3.33 13.29 4.92 21.24 4.92 8.95 0 16.75-1.88 23.4-5.64 6.65-3.75 11.13-9.1 13.44-15.75l-18.2-4.62a18.3 18.3 0 0 1-7.09 7.37 20.33 20.33 0 0 1-10.69 2.74c-5.2 0-9.68-1.44-13.14-4.62-3.47-3.03-5.64-7.22-6.5-12.57h58.07c.15-1.01.3-3.18.3-6.5 0-7.66-1.74-14.45-5.06-20.37a35.58 35.58 0 0 0-14.02-13.73 43.64 43.64 0 0 0-20.66-4.9c-7.94 0-15.02 1.72-21.1 4.9a35.42 35.42 0 0 0-14.44 13.58c-3.47 5.93-5.2 12.72-5.2 20.23 0 7.8 1.73 14.74 5.2 20.8a35.87 35.87 0 0 0 14.45 14.16Zm39-41.46h-36.7c.88-4.91 2.9-8.96 6.08-11.85 3.18-2.89 7.22-4.48 12.13-4.48 4.92 0 8.96 1.6 12.43 4.63a19.22 19.22 0 0 1 6.07 11.7ZM514.73 127.51c6.21 4.91 14.88 7.23 25.86 7.23 10.83 0 19.36-2.17 25.57-6.65 6.21-4.34 9.4-10.55 9.4-18.5 0-5.48-1.6-9.67-4.49-12.85a23.3 23.3 0 0 0-10.83-6.65 92.96 92.96 0 0 0-14.88-3.03c-5.2-.58-8.96-1.01-11.13-1.45a13.35 13.35 0 0 1-5.78-2.16c-1.73-1.16-2.45-2.75-2.45-4.92 0-2.6 1.15-4.76 3.6-6.35 2.32-1.6 5.5-2.46 9.54-2.46 4.34 0 7.8 1.01 10.4 3.03a10.15 10.15 0 0 1 4.2 7.8h19.5c0-4.9-1.44-9.38-4.33-13.14a27.62 27.62 0 0 0-12.14-8.81c-5.2-2.03-11.12-3.04-17.63-3.04-9.97 0-17.91 2.31-23.98 6.8-6.07 4.47-8.96 10.4-8.96 17.9 0 5.93 1.6 10.41 4.77 13.59a24.2 24.2 0 0 0 11.13 6.5 95.77 95.77 0 0 0 15.89 2.6c5.63.58 9.82 1.44 12.57 2.46 2.6 1 4.04 3.03 4.04 6.06 0 2.9-1.3 5.06-3.75 6.65-2.46 1.73-5.64 2.46-9.68 2.46-5.2 0-9.4-1.16-12.43-3.61-3.03-2.32-4.48-5.5-4.48-9.54h-18.92c0 8.52 3.03 15.17 9.39 20.08ZM601.36 127.22c4.33 4.91 10.25 7.23 17.77 7.23a47 47 0 0 0 7.36-.58c2.6-.44 5.06-1.01 7.08-1.74v-15.31a31.89 31.89 0 0 1-7.65 1.01c-3.04 0-5.5-.86-7.23-2.74-1.73-1.88-2.6-4.48-2.6-7.66V73.77H633v-15.6h-16.9l.15-23.41h-16.76l-4.2 23.4h-10.97v15.6h10.4v34.54c0 7.8 2.17 14.16 6.64 18.92ZM661.13 129.68c6.06 3.18 13.29 4.77 21.52 4.77 8.1 0 15.17-1.6 21.38-4.77a34.84 34.84 0 0 0 14.45-13.73c3.47-5.92 5.2-12.86 5.2-20.8 0-7.8-1.73-14.74-5.2-20.66a34.84 34.84 0 0 0-14.45-13.73c-6.2-3.18-13.29-4.9-21.38-4.9-8.23 0-15.46 1.72-21.52 4.9a34.84 34.84 0 0 0-14.45 13.73c-3.47 5.92-5.06 12.86-5.06 20.66 0 7.94 1.59 14.88 5.06 20.8a34.85 34.85 0 0 0 14.45 13.73Zm35.54-19.36c-3.76 4.04-8.38 5.92-14.02 5.92-5.78 0-10.54-1.88-14.16-5.92-3.75-3.9-5.49-8.96-5.49-15.17 0-6.07 1.74-11.13 5.5-15.03 3.6-3.9 8.37-5.92 14.15-5.92 5.64 0 10.26 2.02 14.02 5.92 3.6 3.9 5.49 8.96 5.49 15.03 0 6.21-1.88 11.27-5.5 15.17ZM736.66 58.16v73.97h21.38V94.28c0-5.63 1.44-10.26 4.33-13.87a14.18 14.18 0 0 1 11.42-5.34c1.59 0 3.47.29 5.78.72 2.3.58 4.33 1.15 6.35 2.02V58.6a20.33 20.33 0 0 0-8.38-1.88 20.6 20.6 0 0 0-10.83 3.18 19.6 19.6 0 0 0-7.37 8.38h-1.59V58.16h-21.1ZM797.18 58.16v73.97h21.38V89.95c0-4.63 1.16-8.53 3.76-11.42 2.46-2.89 5.78-4.33 10.11-4.33 4.05 0 7.23 1.44 9.68 4.33 2.32 2.9 3.62 6.65 3.62 11.42v42.18h21.52V89.95c0-4.63 1.3-8.38 3.9-11.27a13.33 13.33 0 0 1 10.26-4.48c4.05.14 7.37 1.73 9.97 4.62 2.6 2.9 3.9 6.65 3.9 11.13v42.18h21.38v-45.8a35.1 35.1 0 0 0-3.6-15.74 27.4 27.4 0 0 0-9.98-10.7c-4.33-2.6-9.1-3.9-14.44-3.9-5.2 0-9.83 1.3-13.87 3.76a25.4 25.4 0 0 0-9.4 10.11h-1.44a23.92 23.92 0 0 0-9.25-10.1 25.04 25.04 0 0 0-13.43-3.9c-4.63 0-8.82 1.3-12.57 3.6a24.72 24.72 0 0 0-8.81 9.68h-1.45V58.16h-21.24Z"></path>
  <g clip-path="url(#a)">
    <path fill="#12262B" d="M154.99 77.5c0 21.4.72 46.33-15.22 62.31C123.84 155.8 98.9 155 77.5 155c-21.4 0-46.33.72-62.32-15.22C-.8 123.84 0 98.9 0 77.5c0-21.4-.7-46.33 15.23-62.32C31.16-.8 56.1 0 77.49 0c21.4 0 46.34-.7 62.32 15.23C155.8 31.16 155 56.1 155 77.49Z"></path>
    <path fill="#fff" d="M86.23 36.99H36.66a7.94 7.94 0 1 0 0 15.87h49.57a7.94 7.94 0 1 0 0-15.87ZM102.46 69.55H52.9a7.94 7.94 0 0 0 0 15.88h49.57a7.94 7.94 0 1 0 0-15.88ZM86.23 102.14h-17.1a7.94 7.94 0 0 0 0 15.87h17.1a7.94 7.94 0 1 0 0-15.87ZM126.28 44.92a7.94 7.94 0 1 0-15.88 0 7.94 7.94 0 0 0 15.88 0Z"></path>
  </g>
  <defs>
    <clipPath id="a">
      <path fill="#fff" d="M0 0h155v155H0z"></path>
    </clipPath>
  </defs>
</svg>