<svg xmlns="http://www.w3.org/2000/svg" width="155" height="155" viewBox="0 0 155 155" fill="none">
  <path fill="#12262B" d="M154.99 77.5c0 21.4.72 46.33-15.22 62.31C123.84 155.8 98.9 155 77.5 155c-21.4 0-46.33.72-62.32-15.22C-.8 123.84 0 98.9 0 77.5c0-21.4-.7-46.33 15.23-62.32C31.16-.8 56.1 0 77.49 0c21.4 0 46.34-.7 62.32 15.23C155.8 31.16 155 56.1 155 77.49Z"></path>
  <path fill="#fff" d="M86.23 36.99H36.66a7.94 7.94 0 1 0 0 15.87h49.57a7.94 7.94 0 1 0 0-15.87ZM102.46 69.55H52.9a7.94 7.94 0 0 0 0 15.88h49.57a7.94 7.94 0 1 0 0-15.88ZM86.23 102.14h-17.1a7.94 7.94 0 0 0 0 15.87h17.1a7.94 7.94 0 1 0 0-15.87ZM126.28 44.92a7.94 7.94 0 1 0-15.88 0 7.94 7.94 0 0 0 15.88 0Z"></path>
</svg>